<svg xmlns="http://www.w3.org/2000/svg" width="1400" height="1800" viewBox="0 0 1400 1800"><rect width="1400" height="1800" fill="#0d0d10"/><rect x="120" y="120" width="1160" height="1560" rx="40" fill="#141417" stroke="#2b2b31" stroke-width="2"/><circle cx="700" cy="620" r="300" fill="none" stroke="#c7a96b" stroke-opacity="0.22" stroke-width="2"/><path d="M500 1120C500 980 590 900 700 900C810 900 900 980 900 1120V1320H500Z" fill="#f6efe4" fill-opacity="0.95"/><path d="M560 900L640 760L740 760L820 900L760 910L730 860H650L620 910Z" fill="#151518"/><path d="M610 850H790L810 1120H590Z" fill="#1a1a1d"/><path d="M600 1160H800V1380H600Z" fill="#f0e3cc"/><rect x="600" y="1380" width="200" height="80" rx="20" fill="#c7a96b"/><path d="M650 760L700 620L750 760" stroke="#d4b278" stroke-width="8" fill="none" stroke-linecap="round"/><path d="M640 760H760" stroke="#f6efe4" stroke-width="6" stroke-linecap="round"/><text x="700" y="1600" text-anchor="middle" fill="#f6efe4" font-family="Georgia, serif" font-size="46" letter-spacing="8">OOOXYEL / ALMATY</text></svg>
