<svg xmlns="http://www.w3.org/2000/svg" width="1400" height="1000" viewBox="0 0 1400 1000"><rect width="1400" height="1000" fill="#101114"/><rect x="90" y="80" width="1220" height="840" rx="32" fill="#16181d" stroke="#2b2d36" stroke-width="2"/><circle cx="420" cy="320" r="180" fill="#17191f"/><path d="M310 690C310 590 370 490 450 430L560 430L620 690H310Z" fill="#efe6d2"/><path d="M348 420H580L640 690H360Z" fill="#16171c"/><path d="M400 430L500 330L590 330L620 430H400Z" fill="#22242b"/><rect x="760" y="250" width="260" height="440" rx="28" fill="#1c1e24"/><path d="M800 310H1000V640H800Z" fill="#f7efe3"/><path d="M820 330H980V620H820Z" fill="#14151a"/><rect x="845" y="650" width="150" height="30" rx="12" fill="#c9a66b"/><circle cx="1050" cy="340" r="58" fill="#d5b074" fill-opacity="0.3"/><text x="700" y="880" text-anchor="middle" fill="#f5efe0" font-family="Georgia, serif" font-size="44">CHAMPAGNE SLIP</text></svg>
