<svg xmlns="http://www.w3.org/2000/svg" width="1400" height="1000" viewBox="0 0 1400 1000"><rect width="1400" height="1000" fill="#0f1013"/><rect x="80" y="70" width="1240" height="860" rx="30" fill="#16181d" stroke="#2b2d36" stroke-width="2"/><circle cx="310" cy="300" r="180" fill="#1c1e24"/><path d="M240 700L320 420L470 420L540 700H240Z" fill="#f5efe0"/><path d="M290 420L410 260L490 260L540 420H290Z" fill="#121216"/><path d="M380 700L460 520L620 520L620 760H380Z" fill="#1b1c22"/><path d="M430 560L520 430L620 430L620 520H430Z" fill="#23252d"/><path d="M580 680C620 660 650 640 690 600" stroke="#d1ab66" stroke-width="6" fill="none" stroke-linecap="round"/><rect x="760" y="220" width="360" height="520" rx="24" fill="#26272d"/><path d="M820 260H1040V660H820Z" fill="#f3ebdb"/><path d="M860 280H1000V640H860Z" fill="#17181e"/><rect x="820" y="660" width="220" height="60" rx="16" fill="#cfa96b"/><text x="700" y="880" text-anchor="middle" fill="#f5efe0" font-family="Georgia, serif" font-size="44">COAT NOIR</text></svg>
