<svg xmlns="http://www.w3.org/2000/svg" width="1400" height="1000" viewBox="0 0 1400 1000"><rect width="1400" height="1000" fill="#0f1012"/><rect x="90" y="80" width="1220" height="840" rx="32" fill="#16171c" stroke="#2b2d36" stroke-width="2"/><circle cx="430" cy="330" r="180" fill="#191a1f"/><path d="M320 720L400 440L510 420L590 720H320Z" fill="#efe4ce"/><path d="M360 430H600L620 720H350Z" fill="#14161a"/><path d="M420 420L520 320L600 320L620 430H420Z" fill="#22242b"/><rect x="740" y="250" width="300" height="460" rx="24" fill="#202229"/><path d="M780 290H1010V670H780Z" fill="#f7efe3"/><path d="M800 320H990V650H800Z" fill="#131419"/><rect x="806" y="660" width="170" height="36" rx="14" fill="#cba56c"/><path d="M685 780C720 750 742 724 770 690" stroke="#d3b072" stroke-width="6" stroke-linecap="round"/><text x="700" y="880" text-anchor="middle" fill="#f5efe0" font-family="Georgia, serif" font-size="44">VELVET MIDI</text></svg>
